<?xml version="1.0" standalone="no"?>
<!DOCTYPE svg PUBLIC "-//W3C//DTD SVG 20010904//EN"
 "http://www.w3.org/TR/2001/REC-SVG-20010904/DTD/svg10.dtd">
<svg version="1.0" xmlns="http://www.w3.org/2000/svg"
 width="283.000000pt" height="283.000000pt" viewBox="0 0 283.000000 283.000000"
 preserveAspectRatio="xMidYMid meet">
<metadata>
Created by potrace 1.11, written by Peter Selinger 2001-2013
</metadata>
<g transform="translate(0.000000,283.000000) scale(0.100000,-0.100000)"
fill="#000000" stroke="none">
<path d="M1700 2295 l0 -444 113 65 c61 37 232 136 380 222 147 85 266 156
265 158 -2 1 -173 101 -380 222 l-378 220 0 -443z"/>
<path d="M930 1851 c0 -243 -2 -441 -5 -441 -2 0 -172 98 -377 219 l-373 219
-3 -441 c-1 -242 0 -442 2 -444 2 -2 173 95 380 216 l376 219 0 -439 c0 -241
4 -439 8 -439 5 0 292 165 638 366 346 201 684 398 752 437 67 39 121 75 119
80 -2 7 -1473 872 -1504 884 -11 4 -13 -77 -13 -436z"/>
<path d="M1700 515 c0 -239 2 -435 5 -435 8 0 756 433 753 435 -7 6 -750 435
-754 435 -2 0 -4 -196 -4 -435z"/>
</g>
</svg>
