<?xml version="1.0" standalone="no"?>
<!DOCTYPE svg PUBLIC "-//W3C//DTD SVG 20010904//EN"
 "http://www.w3.org/TR/2001/REC-SVG-20010904/DTD/svg10.dtd">
<svg version="1.0" xmlns="http://www.w3.org/2000/svg"
 width="700.000000pt" height="700.000000pt" viewBox="0 0 700.000000 700.000000"
 preserveAspectRatio="xMidYMid meet">
<metadata>
Created by potrace 1.11, written by Peter Selinger 2001-2013
</metadata>
<g transform="translate(0.000000,700.000000) scale(0.100000,-0.100000)"
fill="#000000" stroke="none">
<path d="M4190 5675 l0 -1097 38 22 c43 26 940 548 992 578 19 11 73 42 120
70 47 27 165 97 263 154 98 56 186 108 195 113 9 6 74 43 144 84 70 40 126 77
123 81 -4 7 -102 67 -190 116 -11 6 -42 23 -70 39 -27 15 -61 35 -75 45 -14 9
-32 20 -40 23 -8 4 -31 17 -50 28 -19 12 -109 64 -200 117 -91 52 -176 102
-190 111 -14 9 -34 21 -45 27 -11 6 -36 20 -55 31 -19 11 -60 34 -90 52 -30
17 -62 35 -70 40 -44 27 -438 258 -456 267 -11 6 -87 50 -167 98 -81 48 -154
89 -162 92 -13 5 -15 -122 -15 -1091z"/>
<path d="M2308 5658 c-2 -7 -3 -500 -3 -1095 1 -596 -1 -1083 -4 -1083 -3 0
-26 12 -51 26 -25 15 -59 34 -75 44 -17 9 -147 86 -290 170 -143 84 -311 183
-373 219 -62 36 -125 73 -140 82 -188 111 -595 349 -598 349 -3 0 -17 8 -32
19 -45 31 -252 151 -261 151 -5 0 -14 7 -21 15 -38 46 -38 52 -37 -1084 l0
-1100 36 25 c19 13 39 24 43 24 3 0 42 22 85 48 43 27 85 52 93 56 8 4 24 12
35 19 11 7 47 28 80 47 33 19 68 40 77 45 9 6 55 33 103 60 47 28 113 66 145
85 33 19 88 51 122 71 53 31 309 180 538 314 30 18 96 56 145 85 50 29 109 64
133 76 23 13 67 40 97 59 31 19 58 35 60 35 3 0 23 11 45 25 22 14 41 25 43
25 2 0 3 -486 3 -1080 -1 -595 1 -1087 4 -1094 3 -9 131 60 414 225 225 132
411 239 413 239 2 0 20 11 41 24 20 13 55 35 78 48 22 13 91 52 153 88 62 36
129 74 149 86 97 55 405 235 466 272 37 23 70 42 73 42 3 0 33 17 67 38 34 20
71 42 81 49 11 7 36 21 55 31 34 19 1161 673 1190 691 14 9 65 39 420 245 85
49 157 91 159 93 9 6 -36 34 -204 127 -27 16 -66 38 -85 51 -28 18 -438 258
-555 325 -16 10 -212 124 -435 255 -223 130 -423 248 -445 260 -22 13 -116 68
-210 122 -736 432 -1343 787 -1391 814 -67 39 -362 212 -392 231 -33 21 -39
21 -44 6z"/>
<path d="M4190 1279 c0 -872 3 -1089 13 -1082 6 6 32 22 57 35 25 14 86 49
135 78 50 29 108 62 130 75 22 12 155 89 295 170 383 221 840 485 880 507 19
11 64 37 100 58 114 66 154 89 213 122 31 18 57 35 57 38 0 3 -141 86 -312
185 -172 99 -384 222 -471 273 -87 50 -160 92 -162 92 -2 0 -33 18 -70 41 -37
22 -83 50 -102 60 -112 63 -684 395 -715 415 -21 13 -40 24 -43 24 -3 0 -5
-491 -5 -1091z"/>
</g>
</svg>
