<?xml version="1.0" encoding="UTF-8" standalone="no"?>
<!-- Created with Inkscape (http://www.inkscape.org/) -->

<svg
   xmlns:dc="http://purl.org/dc/elements/1.1/"
   xmlns:cc="http://creativecommons.org/ns#"
   xmlns:rdf="http://www.w3.org/1999/02/22-rdf-syntax-ns#"
   xmlns:svg="http://www.w3.org/2000/svg"
   xmlns="http://www.w3.org/2000/svg"
   xmlns:sodipodi="http://sodipodi.sourceforge.net/DTD/sodipodi-0.dtd"
   xmlns:inkscape="http://www.inkscape.org/namespaces/inkscape"
   width="1542"
   height="385"
   viewBox="0 0 407.98748 101.86459"
   version="1.1"
   id="svg8"
   inkscape:version="0.92.4 (33fec40, 2019-01-16)"
   sodipodi:docname="bg-c2a.svg">
  <defs
     id="defs2" />
  <sodipodi:namedview
     id="base"
     pagecolor="#ffffff"
     bordercolor="#666666"
     borderopacity="1.0"
     inkscape:pageopacity="0.0"
     inkscape:pageshadow="2"
     inkscape:zoom="0.98994949"
     inkscape:cx="1250.7285"
     inkscape:cy="296.23634"
     inkscape:document-units="mm"
     inkscape:current-layer="layer1"
     showgrid="false"
     units="px"
     inkscape:window-width="1853"
     inkscape:window-height="1025"
     inkscape:window-x="67"
     inkscape:window-y="1107"
     inkscape:window-maximized="1" />
  <metadata
     id="metadata5">
    <rdf:RDF>
      <cc:Work
         rdf:about="">
        <dc:format>image/svg+xml</dc:format>
        <dc:type
           rdf:resource="http://purl.org/dc/dcmitype/StillImage" />
        <dc:title></dc:title>
      </cc:Work>
    </rdf:RDF>
  </metadata>
  <g
     inkscape:label="Calque 1"
     inkscape:groupmode="layer"
     id="layer1"
     transform="translate(0,-195.13539)">
    <circle
       style="fill:#ffa64d;fill-opacity:0;stroke:none;stroke-width:0.26458332;stroke-opacity:1"
       id="path817"
       cx="29.266012"
       cy="258.11224"
       r="17.773424" />
    <ellipse
       style="fill:#ffa64d;fill-opacity:0;stroke:none;stroke-width:0.26458332;stroke-opacity:1"
       id="path839"
       cx="18.976137"
       cy="244.61514"
       rx="36.348656"
       ry="33.408691" />
    <circle
       style="fill:#ff9941;fill-opacity:0;stroke:none;stroke-width:0.26458332;stroke-opacity:1"
       id="path841"
       cx="39.555889"
       cy="257.17682"
       r="16.036171" />
    <ellipse
       style="fill:#ff9941;fill-opacity:0;stroke:none;stroke-width:0.26458332;stroke-opacity:1"
       id="path851"
       cx="22.183371"
       cy="241.67517"
       rx="33.675961"
       ry="31.537804" />
    <ellipse
       style="fill:#ff9941;fill-opacity:0;stroke:none;stroke-width:0.26458332;stroke-opacity:1"
       id="path853"
       cx="55.191154"
       cy="268.80304"
       rx="10.824416"
       ry="9.4880686" />
    <circle
       style="fill:none;fill-opacity:1;stroke:#ffa64d;stroke-width:0.26458332;stroke-opacity:0"
       id="path865"
       cx="41.56041"
       cy="263.99219"
       r="17.773424" />
    <circle
       style="fill:none;fill-opacity:1;stroke:#456990;stroke-width:0.26458332;stroke-opacity:1"
       id="path2305"
       cx="30.869631"
       cy="255.43956"
       r="12.160764" />
    <rect
       style="fill:none;fill-opacity:1;stroke:#456990;stroke-width:0.26458332;stroke-opacity:0.91158537"
       id="rect2307"
       width="35.814117"
       height="38.486809"
       x="54.790253"
       y="234.99344" />
    <path
       style="fill:none;stroke:#456990;stroke-width:0.26458332px;stroke-linecap:butt;stroke-linejoin:miter;stroke-opacity:1"
       d="m 28.865107,210.93919 c -16.570709,21.38156 -16.837978,21.38156 -16.837978,21.38156 l 35.012308,-0.26727 z"
       id="path2862"
       inkscape:connector-curvature="0" />
    <path
       sodipodi:type="spiral"
       style="fill:none;fill-rule:evenodd;stroke:#456990;stroke-width:0.26458332;stroke-opacity:1"
       id="path2868"
       sodipodi:cx="41.69405"
       sodipodi:cy="283.10196"
       sodipodi:expansion="1"
       sodipodi:revolution="3"
       sodipodi:radius="12.189366"
       sodipodi:argument="-17.939802"
       sodipodi:t0="0"
       d="m 41.69405,283.10196 c 0.375213,0.48242 -0.465172,0.74379 -0.801809,0.62363 -0.912266,-0.32562 -0.912872,-1.54633 -0.445448,-2.22725 0.836112,-1.21799 2.603701,-1.15198 3.652684,-0.26727 1.539424,1.29835 1.400202,3.67615 0.08909,5.07813 -1.747511,1.8686 -4.754046,1.65243 -6.503559,-0.0891 -2.201583,-2.19153 -1.906765,-5.83456 0.267274,-7.92899 2.633053,-2.53664 6.916561,-2.16232 9.354434,0.44545 2.872948,3.07317 2.418631,7.99948 -0.623636,10.77987 -3.512416,3.21007 -9.083021,2.67546 -12.205308,-0.80181 -3.547741,-3.9511 -2.932642,-10.167 0.979996,-13.63075 4.38939,-3.88581 11.25128,-3.19009 15.056184,1.15818 4.224164,4.82739 3.447723,12.3358 -1.336358,16.48162" />
    <circle
       style="fill:none;fill-opacity:1;stroke:#456990;stroke-width:0.26458332;stroke-opacity:1"
       id="path2870"
       cx="360.41293"
       cy="228.44534"
       r="16.169806" />
    <circle
       style="fill:none;fill-opacity:1;stroke:#456990;stroke-width:0.26458332;stroke-opacity:1"
       id="path2872"
       cx="384.19992"
       cy="286.17557"
       r="7.8844509" />
    <rect
       style="fill:none;fill-opacity:1;stroke:#456990;stroke-width:0.26458332;stroke-opacity:1"
       id="rect2874"
       width="28.33057"
       height="28.33057"
       x="338.36322"
       y="251.56415" />
    <rect
       style="fill:none;fill-opacity:1;stroke:#456990;stroke-width:0.26458332;stroke-opacity:1"
       id="rect2876"
       width="13.096207"
       height="13.096207"
       x="306.82541"
       y="276.42023" />
    <path
       sodipodi:type="spiral"
       style="fill:none;fill-rule:evenodd;stroke:#456990;stroke-width:0.26458332;stroke-opacity:0.95426827"
       id="path2878"
       sodipodi:cx="385.93719"
       sodipodi:cy="264.66034"
       sodipodi:expansion="1"
       sodipodi:revolution="3"
       sodipodi:radius="10.987346"
       sodipodi:argument="-17.995302"
       sodipodi:t0="0"
       d="m 385.93719,264.66034 c 0.36182,0.41541 -0.38146,0.69267 -0.69044,0.60136 -0.83732,-0.24745 -0.8989,-1.34606 -0.51227,-1.98225 0.6916,-1.138 2.28573,-1.16697 3.27405,-0.42318 1.4504,1.09154 1.444,3.23852 0.33409,4.56585 -1.47932,1.76913 -4.19601,1.7249 -5.85765,0.245 -2.09101,-1.8623 -2.00783,-5.15576 -0.15592,-7.14945 2.24291,-2.41464 6.11679,-2.29193 8.44126,-0.0668 2.73932,2.6222 2.57676,7.0786 -0.0223,9.73306 -3.00067,3.06469 -8.04094,2.86208 -11.02487,-0.11135 -3.39052,-3.37859 -3.14774,-9.00365 0.20044,-12.31667 3.75616,-3.7167 9.96665,-3.43365 13.60848,0.28953 4.04312,4.13344 3.71976,10.92983 -0.37862,14.90028" />
    <path
       style="fill:none;stroke:#456990;stroke-width:0.26458332px;stroke-linecap:butt;stroke-linejoin:miter;stroke-opacity:1"
       d="m 318.05073,234.4589 c -12.2944,20.57976 -12.2944,20.57976 -12.2944,20.57976 l 24.32153,-0.26727 z"
       id="path2880"
       inkscape:connector-curvature="0" />
  </g>
</svg>
