<?xml version="1.0" encoding="UTF-8" standalone="no"?>

<svg width="97px" height="42px" viewBox="0 0 97 42" version="1.1" xmlns="http://www.w3.org/2000/svg" xlink="http://www.w3.org/1999/xlink" alt="follow">
    <!-- Generator: Sketch 51.2 (57519) - http://www.bohemiancoding.com/sketch -->
    <title>img-logotype</title>
    <desc>Created with Sketch.</desc>
    <defs></defs>
    <g id="Page-1" stroke="none" stroke-width="1" fill="none" fill-rule="evenodd">
        <g id="Homepage-0.2" transform="translate(-80.000000, -30.000000)" fill="#FFFFFF">
            <g id="img-logotype" transform="translate(80.000000, 30.000000)">
                <path d="M46.131,20.058 L48.477,20.058 L48.477,22.098 L46.199,22.098 L46.199,29 L43.547,29 L43.547,22.098 L42.136,22.098 L42.136,20.058 L43.547,20.058 L43.547,19.65 C43.547,18.6073281 43.8558302,17.7800031 44.4735,17.168 C45.0911698,16.5559969 45.9609944,16.25 47.083,16.25 C47.4796687,16.25 47.8564982,16.2924996 48.2135,16.3775 C48.5705018,16.4625004 48.8679988,16.5843325 49.106,16.743 L48.409,18.664 C48.1029985,18.4486656 47.746002,18.341 47.338,18.341 C46.5333293,18.341 46.131,18.7829956 46.131,19.667 L46.131,20.058 Z M54.155,29.136 C53.1916619,29.136 52.3275038,28.9348353 51.5625,28.5325 C50.7974962,28.1301647 50.1996688,27.5720036 49.769,26.858 C49.3383312,26.1439964 49.123,25.3336712 49.123,24.427 C49.123,23.5203288 49.3383312,22.7100036 49.769,21.996 C50.1996688,21.2819964 50.7974962,20.7238353 51.5625,20.3215 C52.3275038,19.9191647 53.1916619,19.718 54.155,19.718 C55.1183381,19.718 55.9796629,19.9191647 56.739,20.3215 C57.4983371,20.7238353 58.0933312,21.2819964 58.524,21.996 C58.9546688,22.7100036 59.17,23.5203288 59.17,24.427 C59.17,25.3336712 58.9546688,26.1439964 58.524,26.858 C58.0933312,27.5720036 57.4983371,28.1301647 56.739,28.5325 C55.9796629,28.9348353 55.1183381,29.136 54.155,29.136 Z M54.155,26.96 C54.8350034,26.96 55.3931645,26.7305023 55.8295,26.2715 C56.2658355,25.8124977 56.484,25.1976705 56.484,24.427 C56.484,23.6563295 56.2658355,23.0415023 55.8295,22.5825 C55.3931645,22.1234977 54.8350034,21.894 54.155,21.894 C53.4749966,21.894 52.9140022,22.1234977 52.472,22.5825 C52.0299978,23.0415023 51.809,23.6563295 51.809,24.427 C51.809,25.1976705 52.0299978,25.8124977 52.472,26.2715 C52.9140022,26.7305023 53.4749966,26.96 54.155,26.96 Z M60.938,16.386 L63.59,16.386 L63.59,29 L60.938,29 L60.938,16.386 Z M66.055,16.386 L68.707,16.386 L68.707,29 L66.055,29 L66.055,16.386 Z M75.524,29.136 C74.5606619,29.136 73.6965038,28.9348353 72.9315,28.5325 C72.1664962,28.1301647 71.5686688,27.5720036 71.138,26.858 C70.7073312,26.1439964 70.492,25.3336712 70.492,24.427 C70.492,23.5203288 70.7073312,22.7100036 71.138,21.996 C71.5686688,21.2819964 72.1664962,20.7238353 72.9315,20.3215 C73.6965038,19.9191647 74.5606619,19.718 75.524,19.718 C76.4873381,19.718 77.3486629,19.9191647 78.108,20.3215 C78.8673371,20.7238353 79.4623312,21.2819964 79.893,21.996 C80.3236688,22.7100036 80.539,23.5203288 80.539,24.427 C80.539,25.3336712 80.3236688,26.1439964 79.893,26.858 C79.4623312,27.5720036 78.8673371,28.1301647 78.108,28.5325 C77.3486629,28.9348353 76.4873381,29.136 75.524,29.136 Z M75.524,26.96 C76.2040034,26.96 76.7621645,26.7305023 77.1985,26.2715 C77.6348355,25.8124977 77.853,25.1976705 77.853,24.427 C77.853,23.6563295 77.6348355,23.0415023 77.1985,22.5825 C76.7621645,22.1234977 76.2040034,21.894 75.524,21.894 C74.8439966,21.894 74.2830022,22.1234977 73.841,22.5825 C73.3989978,23.0415023 73.178,23.6563295 73.178,24.427 C73.178,25.1976705 73.3989978,25.8124977 73.841,26.2715 C74.2830022,26.7305023 74.8439966,26.96 75.524,26.96 Z M96.995,19.854 L93.68,29 L91.13,29 L89.073,23.322 L86.948,29 L84.398,29 L81.1,19.854 L83.599,19.854 L85.758,26.042 L88.002,19.854 L90.246,19.854 L92.422,26.042 L94.649,19.854 L96.995,19.854 Z" id="follow"></path>
                <g id="Logotype" fill-rule="nonzero">
                    <path d="M18,42 C8.0588745,42 0,33.9411255 0,24 C0,14.0588745 8.0588745,6 18,6 C27.9411255,6 36,14.0588745 36,24 C36,33.9411255 27.9411255,42 18,42 Z M15.7205121,27.7080449 C16.1987636,28.9889081 17.6364607,29.6438561 18.9316985,29.1709123 C19.6305464,28.9157345 20.1779077,28.3656461 20.4246443,27.6705283 L22.2138334,22.6299411 L22.6492712,23.3332672 C23.370212,24.4977427 24.909238,24.8637846 26.0867819,24.1508447 C26.5667805,23.8602312 26.9335747,23.4179511 27.1278081,22.8955763 L29.1084783,17.5687273 C29.3943771,16.7998261 28.995831,15.9473138 28.2183007,15.6645879 C27.4407704,15.381862 26.5786908,15.775985 26.292792,16.5448863 L24.6685515,20.9131469 L24.2227978,20.1931583 C23.9223061,19.7077992 23.4616856,19.3398216 22.9186794,19.1513324 C21.6158966,18.6991085 20.1890684,19.3769018 19.7317693,20.6652262 L18.0538461,25.3923499 L16.8479771,22.1627664 C16.5698788,21.4179576 15.9469752,20.8505485 15.1735472,20.6375116 C13.8434671,20.2711475 12.4648943,21.0404273 12.0944187,22.3557462 L9.88168277,30.2117374 L7.9041757,25.0186031 C7.61223102,24.2519267 6.74707409,23.8644541 5.97179362,24.1531588 C5.19651316,24.4418635 4.80469209,25.2974189 5.09663678,26.0640952 L7.61325489,32.6729899 C8.09982937,33.9507839 9.54175758,34.5965716 10.8338917,34.1153971 C11.5799481,33.8375751 12.1472874,33.2245502 12.3611937,32.4651073 L14.5694137,24.6251491 L15.7205121,27.7080449 Z" id="Combined-Shape"></path>
                    <circle id="Oval-Copy" cx="32" cy="3" r="3"></circle>
                </g>
            </g>
        </g>
    </g>
</svg>